<svg width="28" height="28" viewBox="0 0 28 28" fill="none" xmlns="http://www.w3.org/2000/svg">
<path d="M3.5 3.5H12.5C13.325 3.5 14 2.825 14 2C14 1.175 13.325 0.5 12.5 0.5H3.5C1.85 0.5 0.5 1.85 0.5 3.5V24.5C0.5 26.15 1.85 27.5 3.5 27.5H12.5C13.325 27.5 14 26.825 14 26C14 25.175 13.325 24.5 12.5 24.5H3.5V3.5Z" fill="#FF4033"/>
<path d="M26.975 13.475L22.79 9.28998C22.31 8.80998 21.5 9.13999 21.5 9.81499V12.5H11C10.175 12.5 9.5 13.175 9.5 14C9.5 14.825 10.175 15.5 11 15.5H21.5V18.185C21.5 18.86 22.31 19.19 22.775 18.71L26.96 14.525C27.26 14.24 27.26 13.76 26.975 13.475Z" fill="#FF4033"/>
</svg>
