<svg width="34" height="34" viewBox="0 0 34 34" fill="none" xmlns="http://www.w3.org/2000/svg">
<path fill-rule="evenodd" clip-rule="evenodd" d="M8.43934 0.93934C9.02513 0.353553 9.97487 0.353553 10.5607 0.93934L17 7.37868L23.4393 0.93934C24.0251 0.353553 24.9749 0.353553 25.5607 0.93934C26.1464 1.52513 26.1464 2.47487 25.5607 3.06066L20.6213 8H29C31.4853 8 33.5 10.0147 33.5 12.5V29C33.5 31.4853 31.4853 33.5 29 33.5H5C2.51472 33.5 0.5 31.4853 0.5 29V12.5C0.5 10.0147 2.51472 8 5 8H13.3787L8.43934 3.06066C7.85355 2.47487 7.85355 1.52513 8.43934 0.93934ZM5 11C4.17157 11 3.5 11.6716 3.5 12.5V29C3.5 29.8284 4.17157 30.5 5 30.5H29C29.8284 30.5 30.5 29.8284 30.5 29V12.5C30.5 11.6716 29.8284 11 29 11H5ZM14.7415 14.1961C14.2772 13.932 13.7075 13.9348 13.2458 14.2034C12.7841 14.472 12.5 14.9658 12.5 15.5V25.31C12.5 25.8442 12.7841 26.338 13.2458 26.6066C13.7075 26.8752 14.2772 26.878 14.7415 26.6139L23.3665 21.7089C23.8354 21.4423 24.125 20.9444 24.125 20.405C24.125 19.8656 23.8354 19.3678 23.3665 19.1011L14.7415 14.1961ZM19.5907 20.405L15.5 22.7314V18.0786L19.5907 20.405Z" fill="#FF4500"/>
</svg>
