<svg width="100" height="100" viewBox="0 0 100 100" fill="none" xmlns="http://www.w3.org/2000/svg">
<rect width="100" height="100" rx="24.6154" fill="#121212"/>
<circle cx="63.0769" cy="50.7692" r="13.8462" fill="white"/>
<path d="M22.9125 52.7274L22.9147 52.729C23.4099 53.0958 23.6648 53.6233 23.6648 54.3501C23.6648 55.0021 23.4169 55.4945 22.918 55.8563C22.4077 56.2169 21.675 56.4127 20.6905 56.4127C19.3531 56.4127 18.3977 56.1354 17.7796 55.6246C17.171 55.1216 16.848 54.3572 16.848 53.2819C16.848 53.1403 16.7332 53.0255 16.5916 53.0255H12.3077C12.1661 53.0255 12.0513 53.1403 12.0513 53.2819C12.0513 54.6498 12.4058 55.8629 13.1205 56.9118L13.1214 56.9132C13.8453 57.961 14.8866 58.7804 16.2314 59.3771L16.2328 59.3777C17.5781 59.9649 19.0653 60.2564 20.6905 60.2564C23.022 60.2564 24.9079 59.7475 26.3223 58.7024L26.3232 58.7017C27.7483 57.6388 28.4615 56.1694 28.4615 54.322C28.4615 52.6621 27.88 51.264 26.7177 50.1457C25.5649 49.0364 23.7502 48.1267 21.3044 47.4003C19.9961 47.0099 19.0228 46.597 18.37 46.1674C17.7503 45.7535 17.4742 45.2687 17.4742 44.7086C17.4742 44.0788 17.7243 43.583 18.2391 43.1996L18.2391 43.1996L18.2412 43.198C18.7597 42.8036 19.5084 42.5898 20.5197 42.5898C21.5616 42.5898 22.3332 42.8423 22.8697 43.3132L22.8696 43.3132L22.8714 43.3147C23.4019 43.7721 23.679 44.4212 23.679 45.2989C23.679 45.4405 23.7938 45.5553 23.9354 45.5553H28.2051C28.3467 45.5553 28.4615 45.4405 28.4615 45.2989C28.4615 44.0241 28.1257 42.8779 27.451 41.8684C26.7862 40.8594 25.8505 40.0847 24.654 39.5423C23.458 38.9906 22.1018 38.718 20.5909 38.718C19.0916 38.718 17.7295 38.9664 16.5084 39.468L16.5077 39.4683C15.2956 39.9703 14.3485 40.6761 13.6803 41.592L13.68 41.5924C13.0207 42.5 12.6917 43.537 12.6917 44.6946C12.6917 46.9416 13.9455 48.7078 16.357 49.9945L16.3573 49.9947C17.2395 50.4638 18.4271 50.9376 19.9143 51.4177L19.9157 51.4182C21.3929 51.8857 22.3809 52.3249 22.9125 52.7274Z" fill="#FF4500" stroke="#FF4500" stroke-width="0.512821" stroke-linejoin="round"/>
<path d="M46.1539 44.876C46.2955 44.876 46.4103 44.7612 46.4103 44.6196V41.5385C46.4103 41.3969 46.2955 41.2821 46.1539 41.2821H31.2821C31.1405 41.2821 31.0257 41.3969 31.0257 41.5385V44.6196C31.0257 44.7612 31.1405 44.876 31.2821 44.876H36.543V60C36.543 60.1416 36.6578 60.2564 36.7994 60.2564H40.5613C40.7029 60.2564 40.8177 60.1416 40.8177 60V44.876H46.1539Z" fill="#FF4500" stroke="#FF4500" stroke-width="0.512821" stroke-linejoin="round"/>
<path d="M53.3333 60.2564C53.4749 60.2564 53.5897 60.1416 53.5897 60V41.5385C53.5897 41.3969 53.4749 41.2821 53.3333 41.2821H49.7436C49.602 41.2821 49.4872 41.3969 49.4872 41.5385V60C49.4872 60.1416 49.602 60.2564 49.7436 60.2564H53.3333Z" fill="#FF4500" stroke="#FF4500" stroke-width="0.512821" stroke-linejoin="round"/>
<path d="M87.9172 52.2556C88.0588 52.2556 88.1736 52.1408 88.1736 51.9992V49.0194C88.1736 48.8778 88.0588 48.763 87.9172 48.763H80.6074V44.876H89.2045C89.3461 44.876 89.4609 44.7612 89.4609 44.6196V41.5385C89.4609 41.3969 89.3461 41.2821 89.2045 41.2821H76.4102C76.2686 41.2821 76.1538 41.3969 76.1538 41.5385V60C76.1538 60.1416 76.2686 60.2564 76.4102 60.2564H89.2308C89.3724 60.2564 89.4872 60.1416 89.4872 60V56.9442C89.4872 56.8026 89.3724 56.6878 89.2308 56.6878H80.6074V52.2556H87.9172Z" fill="#FF4500" stroke="#FF4500" stroke-width="0.512821" stroke-linejoin="round"/>
<path d="M71.7255 43.5898L71.933 43.6803C71.9636 43.6103 71.9568 43.5296 71.915 43.4657C71.8731 43.4018 71.8019 43.3633 71.7255 43.3633H68.3989C68.3086 43.3633 68.2269 43.417 68.1911 43.5L63.9373 53.3466L59.7431 43.501C59.7075 43.4175 59.6256 43.3633 59.5348 43.3633H55.9189C55.8434 43.3633 55.7728 43.401 55.7308 43.4638C55.6887 43.5266 55.6808 43.6062 55.7096 43.6761L55.9189 43.5898C55.7096 43.6761 55.7096 43.6761 55.7097 43.6762L55.7098 43.6766L55.7104 43.678L55.7127 43.6836L55.7219 43.7059L55.758 43.7933L55.8967 44.1284C56.0172 44.4191 56.1914 44.8389 56.4067 45.3556C56.8372 46.389 57.4319 47.81 58.0885 49.3602C59.4008 52.4588 60.9628 56.0794 61.9547 58.1511C61.9636 58.1697 61.9751 58.1871 61.9887 58.2026C62.5932 58.8921 63.1754 59.2986 63.7955 59.2986C64.4181 59.2986 64.9858 58.8894 65.5617 58.1983C65.5751 58.1822 65.5862 58.1643 65.5947 58.1452C66.3489 56.4464 67.9337 52.8299 69.3295 49.6387C70.0275 48.043 70.6784 46.5534 71.1548 45.4627L71.7226 44.1625L71.8784 43.8054L71.9191 43.7122L71.9295 43.6884L71.9322 43.6823L71.9328 43.6808L71.933 43.6804C71.933 43.6804 71.933 43.6803 71.7255 43.5898Z" fill="#FF4500" stroke="#FF4500" stroke-width="0.452825" stroke-linejoin="round"/>
</svg>
