<svg width="40" height="40" viewBox="0 0 40 40" fill="none" xmlns="http://www.w3.org/2000/svg">
<path fill-rule="evenodd" clip-rule="evenodd" d="M40 20.1216C40 9.00959 31.0448 -1.52588e-05 20 -1.52588e-05C8.95516 -1.52588e-05 0 9.00959 0 20.1216C0 30.164 7.31269 38.4888 16.8753 40V25.9394H11.7958V20.1216H16.8753V15.6875C16.8753 10.645 19.8622 7.85782 24.4297 7.85782C26.6179 7.85782 28.9073 8.25113 28.9073 8.25113V13.2031H26.3844C23.901 13.2031 23.1247 14.7537 23.1247 16.3468V20.1214H28.6709L27.785 25.9392H23.1245V39.9998C32.6872 38.4914 40 30.1668 40 20.1216Z" fill="#0078FF"/>
</svg>
