<svg width="32" height="32" viewBox="0 0 32 32" fill="none" xmlns="http://www.w3.org/2000/svg">
<path d="M16.3266 6.18695C19.3924 6.18695 21.4603 7.48479 22.6396 8.56925L27.2472 4.16035C24.4173 1.58251 20.7347 0.000366211 16.3266 0.000366211C9.94127 0.000366211 4.42657 3.59142 1.74182 8.81802L7.02058 12.8358C8.3449 8.97802 12.0092 6.18695 16.3266 6.18695Z" fill="#EA4335"/>
<path d="M32.0004 16.3559C32.0004 15.0404 31.8916 14.0804 31.6557 13.0848H16.3271V19.0225H25.3248C25.1433 20.498 24.1637 22.7203 21.9868 24.2136L27.1388 28.1248C30.2227 25.3335 32.0004 21.227 32.0004 16.3559Z" fill="#4285F4"/>
<path d="M7.03897 19.1647C6.69424 18.1692 6.49471 17.1024 6.49471 16.0003C6.49471 14.898 6.69424 13.8314 7.02077 12.8358L1.74185 8.81799C0.635428 10.9869 0.000427246 13.4224 0.000427246 16.0003C0.000427246 18.578 0.635428 21.0136 1.74185 23.1824L7.03897 19.1647Z" fill="#FBBC05"/>
<path d="M16.3267 32.0002C20.7348 32.0002 24.4354 30.578 27.1383 28.1246L21.9864 24.2136C20.6078 25.1557 18.7574 25.8136 16.3267 25.8136C12.0093 25.8136 8.34497 23.0223 7.03886 19.1647L1.75995 23.1823C4.44469 28.4091 9.94119 32.0002 16.3267 32.0002Z" fill="#34A853"/>
</svg>
