<svg width="400" height="346" viewBox="0 0 400 346" fill="none" xmlns="http://www.w3.org/2000/svg">
<g clip-path="url(#clip0)">
<path d="M39.6194 320.332C35.9749 332.485 41.631 344.909 41.631 344.909C41.631 344.909 53.1959 337.631 56.8404 325.479C60.4848 313.326 54.8287 300.902 54.8287 300.902C54.8287 300.902 43.2638 308.18 39.6194 320.332Z" fill="#F2F2F2"/>
<path d="M45.1527 320.661C48.22 332.971 41.9842 345.116 41.9842 345.116C41.9842 345.116 30.7753 337.302 27.7081 324.992C24.6408 312.682 30.8765 300.538 30.8765 300.538C30.8765 300.538 42.0854 308.351 45.1527 320.661Z" fill="#F2F2F2"/>
<path d="M227.433 332.885L229.753 326.928L207.842 315.162L204.418 323.953L227.433 332.885Z" fill="#FFB8B8"/>
<path d="M239.862 317.346C238.879 316.964 237.83 316.779 236.775 316.802C235.72 316.825 234.68 317.055 233.714 317.48C232.748 317.904 231.876 318.514 231.146 319.275C230.417 320.036 229.845 320.934 229.463 321.916L227.898 325.931L225.485 332.129L224.895 333.648L232.627 336.651L240.106 317.443L239.862 317.346Z" fill="#2F2E41"/>
<path d="M225.486 321.422L224.477 324.092L221.959 330.758L221.899 330.925C215.484 331.748 208.451 330.135 201.946 327.629C199.344 326.627 196.795 325.492 194.31 324.227C190.631 322.372 187.338 320.414 184.71 318.739C180.754 316.205 178.308 314.302 178.308 314.302C178.308 314.302 177.662 314.885 176.492 315.884C174.925 317.223 172.42 319.313 169.248 321.774C168.038 322.719 166.738 323.708 165.35 324.74C155.114 332.319 141.979 312.096 141.979 312.096C141.979 312.096 145.673 309.749 146.638 309.293C149.746 307.825 157.047 304.362 163.345 301.284C166.59 299.697 169.566 298.208 171.563 297.15C178.637 293.39 187.43 300.504 187.43 300.504L225.486 321.422Z" fill="#2F2E41"/>
<path opacity="0.14" d="M225.486 321.422L224.477 324.092L221.959 330.758L221.899 330.925C215.484 331.748 208.451 330.135 201.946 327.629C199.344 326.627 196.795 325.492 194.31 324.227C190.631 322.372 187.338 320.414 184.71 318.739C180.754 316.205 178.308 314.302 178.308 314.302C178.308 314.302 177.662 314.885 176.492 315.884C174.925 317.223 172.42 319.313 169.248 321.774C168.038 322.719 166.738 323.708 165.35 324.74C155.114 332.319 141.979 312.096 141.979 312.096C141.979 312.096 145.673 309.749 146.638 309.293C149.746 307.825 157.047 304.362 163.345 301.284C166.59 299.697 169.566 298.208 171.563 297.15C178.637 293.39 187.43 300.504 187.43 300.504L225.486 321.422Z" fill="black"/>
<path d="M95.8635 179.637C145.558 179.637 185.844 139.424 185.844 89.8187C185.844 40.2132 145.558 0 95.8635 0C46.169 0 5.88354 40.2132 5.88354 89.8187C5.88354 139.424 46.169 179.637 95.8635 179.637Z" fill="#FF4500"/>
<path opacity="0.2" d="M29.4253 29.8268C21.0322 49.4246 19.8936 71.363 26.213 91.7216C32.5324 112.08 45.8981 129.533 63.9215 140.96C81.945 152.387 103.452 157.045 124.599 154.101C145.746 151.157 165.155 140.802 179.359 124.888C174.231 136.862 166.558 147.579 156.869 156.298C147.181 165.018 135.709 171.53 123.248 175.384C110.788 179.238 97.6375 180.342 84.7074 178.62C71.7773 176.897 59.377 172.388 48.3657 165.407C37.3543 158.426 27.9952 149.138 20.9367 138.187C13.8783 127.237 9.28927 114.885 7.48763 101.989C5.686 89.0922 6.71482 75.9588 10.5028 63.4985C14.2908 51.0382 20.7474 39.549 29.4253 29.8268Z" fill="black"/>
<path d="M96.1107 89.8183H96.3582L100.808 344.469H91.4141L96.1107 89.8183Z" fill="#3F3D56"/>
<path d="M82.2594 205.309L80.1865 209.239L95.0605 217.056L97.1334 213.126L82.2594 205.309Z" fill="#3F3D56"/>
<path d="M399.478 345.483H0.522193C0.383699 345.483 0.250877 345.428 0.152946 345.33C0.0550162 345.232 0 345.1 0 344.962C0 344.823 0.0550162 344.691 0.152946 344.593C0.250877 344.495 0.383699 344.44 0.522193 344.44H399.478C399.616 344.44 399.749 344.495 399.847 344.593C399.945 344.691 400 344.823 400 344.962C400 345.1 399.945 345.232 399.847 345.33C399.749 345.428 399.616 345.483 399.478 345.483Z" fill="#3F3D56"/>
<path d="M123.105 265.36H92.8178C92.1948 265.359 91.5975 265.112 91.1569 264.672C90.7164 264.232 90.4686 263.636 90.4679 263.014V249.983C90.4679 245.351 92.311 240.91 95.5916 237.635C98.8723 234.36 103.322 232.521 107.961 232.521C112.601 232.521 117.05 234.36 120.331 237.635C123.612 240.91 125.455 245.351 125.455 249.983V263.014C125.454 263.636 125.206 264.232 124.766 264.672C124.325 265.112 123.728 265.359 123.105 265.36Z" fill="#2F2E41"/>
<path d="M151.908 281.728C151.203 281.852 150.534 282.128 149.947 282.538C149.361 282.948 148.871 283.481 148.514 284.1C148.156 284.719 147.938 285.408 147.877 286.12C147.815 286.832 147.91 287.549 148.156 288.22L139.92 295.781L143.302 301.898L154.783 291.057C155.885 290.57 156.77 289.697 157.27 288.602C157.77 287.507 157.851 286.268 157.496 285.118C157.142 283.968 156.377 282.988 155.347 282.363C154.317 281.738 153.094 281.512 151.908 281.728Z" fill="#FFB8B8"/>
<path d="M127.127 316.106C126.755 316.106 126.382 316.09 126.009 316.058C123.787 315.873 121.649 315.127 119.795 313.891C117.941 312.655 116.432 310.97 115.41 308.992L102.215 283.642C101.351 281.981 101.161 280.051 101.686 278.254C102.21 276.457 103.409 274.93 105.032 273.993C106.655 273.055 108.577 272.778 110.4 273.22C112.222 273.661 113.804 274.787 114.816 276.363L126.989 303.626L143.552 290.192L153.143 293.919L136.946 311.768C135.701 313.132 134.185 314.222 132.494 314.969C130.804 315.716 128.976 316.103 127.127 316.106Z" fill="#CCCCCC"/>
<path d="M175.934 276.936L161.259 262.288C160.746 261.776 160.05 261.488 159.324 261.488C158.598 261.488 157.902 261.776 157.388 262.288L144.187 275.465C143.674 275.978 143.386 276.673 143.386 277.397C143.386 278.122 143.674 278.817 144.187 279.329L157.898 293.016C158.387 293.504 159.043 293.789 159.734 293.814C160.425 293.839 161.1 293.603 161.623 293.151L175.788 280.936C176.06 280.701 176.283 280.415 176.444 280.095C176.606 279.774 176.702 279.425 176.728 279.067C176.755 278.709 176.71 278.35 176.597 278.009C176.484 277.668 176.305 277.353 176.07 277.082C176.026 277.032 175.981 276.983 175.934 276.936Z" fill="#3F3D56"/>
<path d="M173.856 279.505L158.751 264.427L146.286 276.87L160.805 291.362L173.856 279.505Z" fill="#F2F2F2"/>
<path d="M159.822 283.893C163.21 283.893 165.956 281.152 165.956 277.77C165.956 274.389 163.21 271.648 159.822 271.648C156.435 271.648 153.689 274.389 153.689 277.77C153.689 281.152 156.435 283.893 159.822 283.893Z" fill="#FF4500"/>
<path opacity="0.1" d="M162.552 282.989C163.578 282.027 164.242 280.741 164.43 279.348C164.619 277.956 164.323 276.54 163.59 275.34C162.857 274.14 161.733 273.228 160.406 272.758C159.08 272.287 157.631 272.286 156.304 272.756C157.021 272.254 157.837 271.912 158.698 271.752C159.558 271.592 160.443 271.617 161.293 271.827C162.143 272.036 162.938 272.425 163.624 272.966C164.311 273.508 164.874 274.19 165.275 274.967C165.676 275.744 165.905 276.597 165.948 277.47C165.991 278.342 165.847 279.214 165.524 280.026C165.202 280.839 164.709 281.573 164.079 282.179C163.449 282.785 162.696 283.25 161.871 283.542C162.111 283.374 162.339 283.189 162.552 282.989Z" fill="black"/>
<path d="M156.807 276.554C156.075 277.24 156.037 279.71 157.153 280.896C158.27 282.083 160.12 281.537 160.851 280.851C161.583 280.165 160.919 279.598 159.802 278.412C158.685 277.225 157.538 275.868 156.807 276.554Z" fill="#F2F2F2"/>
<path d="M163.033 279.684C164.037 279.684 164.851 278.872 164.851 277.87C164.851 276.868 164.037 276.056 163.033 276.056C162.03 276.056 161.216 276.868 161.216 277.87C161.216 278.872 162.03 279.684 163.033 279.684Z" fill="#2F2E41"/>
<path d="M159.767 276.214C160.77 276.214 161.584 275.402 161.584 274.4C161.584 273.398 160.77 272.586 159.767 272.586C158.763 272.586 157.949 273.398 157.949 274.4C157.949 275.402 158.763 276.214 159.767 276.214Z" fill="#2F2E41"/>
<path d="M163.033 278.324C163.284 278.324 163.488 278.121 163.488 277.87C163.488 277.62 163.284 277.417 163.033 277.417C162.783 277.417 162.579 277.62 162.579 277.87C162.579 278.121 162.783 278.324 163.033 278.324Z" fill="#F2F2F2"/>
<path d="M163.229 276.98C163.354 276.98 163.456 276.879 163.456 276.753C163.456 276.628 163.354 276.527 163.229 276.527C163.104 276.527 163.002 276.628 163.002 276.753C163.002 276.879 163.104 276.98 163.229 276.98Z" fill="#F2F2F2"/>
<path d="M159.962 273.51C160.088 273.51 160.189 273.408 160.189 273.283C160.189 273.158 160.088 273.056 159.962 273.056C159.837 273.056 159.735 273.158 159.735 273.283C159.735 273.408 159.837 273.51 159.962 273.51Z" fill="#F2F2F2"/>
<path d="M159.767 274.853C160.018 274.853 160.221 274.65 160.221 274.4C160.221 274.149 160.018 273.946 159.767 273.946C159.516 273.946 159.312 274.149 159.312 274.4C159.312 274.65 159.516 274.853 159.767 274.853Z" fill="#F2F2F2"/>
<path d="M225.582 341.262L228.354 335.501L207.413 322.089L203.323 330.592L225.582 341.262Z" fill="#FFB8B8"/>
<path d="M239.171 326.723C238.22 326.266 237.188 326.002 236.134 325.943C235.081 325.885 234.026 326.035 233.03 326.384C232.035 326.733 231.118 327.275 230.332 327.978C229.546 328.681 228.906 329.531 228.45 330.481L226.581 334.364L223.698 340.359L222.993 341.829L230.471 345.415L239.406 326.837L239.171 326.723Z" fill="#2F2E41"/>
<path d="M224.523 329.683L223.312 332.269L220.288 338.722L220.215 338.884C213.756 339.212 206.868 337.065 200.575 334.067C198.058 332.869 195.604 331.541 193.223 330.09C189.698 327.958 186.565 325.753 184.074 323.882C180.325 321.052 178.032 318.966 178.032 318.966C178.032 318.966 177.343 319.498 176.1 320.405C174.435 321.62 171.777 323.512 168.424 325.722C167.145 326.572 165.773 327.458 164.309 328.38C153.521 335.151 138.179 343.398 125.129 345.139C102.21 348.199 107.604 317.669 107.604 317.669L125.844 308.213L133.589 309.782L142.21 311.523L145.265 312.143C145.265 312.143 145.844 311.924 146.842 311.544C150.053 310.319 157.599 307.426 164.116 304.84C167.474 303.506 170.555 302.25 172.628 301.348C179.97 298.142 188.189 305.909 188.189 305.909L224.523 329.683Z" fill="#2F2E41"/>
<path d="M74.227 345.868C74.9247 345.708 75.5788 345.397 76.1433 344.958C76.7077 344.518 77.1688 343.961 77.494 343.324C77.8192 342.688 78.0006 341.988 78.0255 341.274C78.0504 340.559 77.9181 339.849 77.6379 339.191L85.471 331.215L81.7762 325.281L70.8728 336.7C69.7974 337.243 68.9588 338.161 68.516 339.28C68.0732 340.399 68.057 341.641 68.4705 342.771C68.8839 343.901 69.6983 344.841 70.7592 345.411C71.8202 345.982 73.0541 346.144 74.227 345.868L74.227 345.868Z" fill="#FFB8B8"/>
<path d="M112.249 265.942C118.994 265.942 124.462 260.484 124.462 253.751C124.462 247.019 118.994 241.561 112.249 241.561C105.505 241.561 100.037 247.019 100.037 253.751C100.037 260.484 105.505 265.942 112.249 265.942Z" fill="#FFB8B8"/>
<path d="M96.3619 287.59L107 317.696L106.936 317.801C105.456 320.243 104.973 322.212 105.538 323.496C105.687 323.823 105.905 324.113 106.177 324.348C106.449 324.582 106.769 324.755 107.114 324.854L132.288 307.289L131.407 300.249L131.456 300.171C133.889 296.284 134.677 292.765 133.798 289.71C132.657 285.747 129.033 283.947 128.996 283.929L128.909 283.86L116.353 268.606L99.5681 271.582L96.3619 287.59Z" fill="#CCCCCC"/>
<path d="M80.1845 340.433L73.0579 331.677L90.2377 303.368L98.2474 278.654L98.4959 278.734L98.2474 278.654C98.685 277.304 99.4074 276.063 100.366 275.015C101.325 273.967 102.497 273.137 103.804 272.579C105.112 272.022 106.524 271.751 107.945 271.784C109.366 271.818 110.764 272.155 112.043 272.773C113.323 273.391 114.455 274.276 115.363 275.368C116.271 276.46 116.934 277.733 117.307 279.102C117.681 280.471 117.756 281.905 117.527 283.305C117.299 284.706 116.772 286.041 115.983 287.221L101.278 309.213L80.1845 340.433Z" fill="#CCCCCC"/>
<path d="M129.593 251.286H111.073L110.884 248.632L109.934 251.286H107.082L106.706 246.025L104.824 251.286H99.3062V251.025C99.3103 247.363 100.77 243.852 103.364 241.262C105.958 238.673 109.475 237.216 113.144 237.212H115.755C119.424 237.216 122.941 238.673 125.536 241.262C128.13 243.852 129.589 247.363 129.593 251.025V251.286Z" fill="#2F2E41"/>
<path d="M110.922 267.792C110.782 267.792 110.643 267.78 110.506 267.756L96.9449 265.367V242.995H111.873L111.503 243.425C106.361 249.411 110.235 259.118 113.002 264.372C113.206 264.756 113.297 265.191 113.265 265.625C113.232 266.059 113.077 266.475 112.818 266.825C112.601 267.125 112.316 267.368 111.987 267.536C111.657 267.705 111.292 267.792 110.922 267.792Z" fill="#2F2E41"/>
<path d="M365.409 169.247C365.409 201.376 339.315 227.426 307.122 227.426C274.93 227.426 248.836 201.376 248.836 169.247C248.836 137.117 274.93 111.067 307.122 111.067C339.315 111.067 365.409 137.117 365.409 169.247Z" fill="#3F3D56" stroke="white" stroke-width="2.48742"/>
<path d="M291.902 146.149V196.706C291.889 196.941 291.94 197.174 292.048 197.382C292.157 197.589 292.321 197.764 292.521 197.887C292.721 198.01 292.95 198.076 293.185 198.08C293.42 198.083 293.652 198.023 293.855 197.906L334.003 172.628C334.199 172.497 334.36 172.32 334.472 172.112C334.583 171.904 334.642 171.672 334.642 171.436C334.642 171.2 334.583 170.968 334.472 170.76C334.36 170.553 334.199 170.375 334.003 170.245L293.855 144.966C293.653 144.845 293.423 144.782 293.188 144.783C292.953 144.784 292.722 144.848 292.521 144.97C292.32 145.092 292.157 145.266 292.047 145.474C291.938 145.681 291.888 145.915 291.902 146.149Z" fill="#F2F2F2"/>
</g>
<defs>
<clipPath id="clip0">
<rect width="400" height="346" fill="white"/>
</clipPath>
</defs>
</svg>
