<svg width="521" height="387" viewBox="0 0 521 387" fill="none" xmlns="http://www.w3.org/2000/svg">
<path d="M176.466 372.734C113.645 348.198 61.867 299.124 21.1315 225.513C-19.6039 151.903 -1.44477 99.1487 75.6091 67.2508C152.663 35.3529 220.392 14.0059 278.796 3.20967C337.2 -7.58653 399.53 8.85315 465.786 52.5287C532.043 96.2043 538.668 147.241 485.663 205.639C432.658 264.036 383.579 312.619 338.427 351.387C293.274 390.156 239.287 397.271 176.466 372.734Z" fill="#FFC7B3"/>
<path d="M354.542 194.832L326.549 208.034L351.324 189.573C347.297 183.31 342.774 177.379 337.797 171.835L216.392 201.905L326.055 160.219C321.043 155.813 315.722 151.771 310.13 148.124L125.138 177.817C105.497 202.292 94.7899 232.695 94.7748 264.034H373.237C373.226 239.729 366.777 215.858 354.542 194.832Z" fill="#F2F2F2"/>
<path d="M294.99 139.552C266.982 125.978 235.218 122.146 204.769 128.668C174.32 135.19 146.942 151.691 127.006 175.535C170.741 165.986 246.886 149.456 294.99 139.552Z" fill="#F2F2F2"/>
<path d="M269.75 142.231C264.984 156.292 257.677 169.103 242.784 169.103C227.891 169.103 216.658 157.048 215.819 142.231C214.746 123.298 227.548 115.282 242.784 115.36C260.783 115.453 275.406 125.545 269.75 142.231Z" fill="#2F2E41"/>
<path d="M264.644 138.657H220.537V202.711H264.644V138.657Z" fill="#2F2E41"/>
<path d="M236.011 175.435C236.011 175.435 237.422 195.585 234.13 198.865C230.838 202.145 263.286 204.957 262.816 201.208C262.346 197.459 256.232 173.091 258.113 167.937C259.994 162.782 236.011 175.435 236.011 175.435Z" fill="#FFB8B8"/>
<path opacity="0.1" d="M236.011 175.435C236.011 175.435 237.422 195.585 234.13 198.865C230.838 202.145 263.286 204.957 262.816 201.208C262.346 197.459 256.232 173.091 258.113 167.937C259.994 162.782 236.011 175.435 236.011 175.435Z" fill="black"/>
<path d="M204.978 226.984L188.081 283.92L187.404 286.213H158.97C170.284 251.316 198.253 199.854 198.253 199.854L202.619 198.868L204.978 226.984Z" fill="#FF4500"/>
<path opacity="0.1" d="M204.978 226.984L188.081 283.92L187.404 286.213H158.97C170.284 251.316 198.253 199.854 198.253 199.854L202.619 198.868L204.978 226.984Z" fill="black"/>
<path d="M241.654 182.464C253.341 182.464 262.816 173.022 262.816 161.376C262.816 149.73 253.341 140.289 241.654 140.289C229.967 140.289 220.492 149.73 220.492 161.376C220.492 173.022 229.967 182.464 241.654 182.464Z" fill="#FFB8B8"/>
<path d="M264.227 195.116C264.227 195.116 256.702 202.145 248.238 200.74C239.773 199.334 236.219 189.076 236.219 189.076L228.017 195.116C228.017 195.116 225.665 211.986 236.481 213.861C247.297 215.735 262.816 216.204 266.108 213.861C269.399 211.518 264.227 195.116 264.227 195.116Z" fill="#3F3D56"/>
<path d="M290.092 219.948L288.743 224.318L269.691 286.213H187.697C187.871 285.457 188 284.692 188.081 283.92C189.142 275.109 188.516 252.882 188.516 251.353C188.516 249.475 196.506 203.087 198.395 199.802C198.688 199.405 199.073 199.084 199.517 198.868C201.71 197.612 206.559 196.206 211.788 194.965C211.792 194.96 211.792 194.96 211.797 194.96C214.719 194.252 217.769 193.601 220.535 193.049H220.539C223.253 192.506 225.687 192.063 227.468 191.77C228.428 191.587 229.397 191.453 230.371 191.369C230.806 191.369 231.123 191.883 231.337 192.671C232.052 195.239 231.777 200.736 231.777 200.736C232.412 201.463 233.12 202.124 233.889 202.709C235.697 204.125 237.68 205.303 239.79 206.215C241.599 207.005 243.471 207.642 245.387 208.117H245.392C247.406 208.626 249.457 208.981 251.525 209.179C253.211 209.372 254.915 209.339 256.592 209.08H256.602C261.588 208.259 263.416 205.172 264.269 202.709C264.42 202.261 264.539 201.831 264.643 201.44C264.643 201.435 264.648 201.425 264.648 201.421C264.96 200.217 265.093 199.373 265.424 199.387H265.429C266.286 199.467 277.098 208.702 284.121 214.766C287.455 217.64 289.932 219.811 290.083 219.943L290.092 219.948Z" fill="#FF4500"/>
<path opacity="0.1" d="M288.743 224.318L269.691 286.213H261.967C262.662 285.199 262.963 283.968 262.815 282.75C262.569 281.022 267.934 263.425 273.101 247.05C277.799 232.17 282.331 218.315 282.331 218.315L286.796 220.42C286.796 220.42 287.597 221.925 288.743 224.318Z" fill="black"/>
<path d="M302.32 280.4C301.392 280.631 301.491 283.377 301.439 286.213H264.946C265.39 285.666 265.721 285.036 265.921 284.361C266.121 283.686 266.186 282.978 266.111 282.278C265.869 280.621 269.469 263.543 273.101 247.05C275.956 234.006 278.836 221.326 279.835 216.913C280.081 215.847 280.214 215.271 280.214 215.271L280.645 215.474L280.654 215.479L290.083 219.943L290.092 219.948C290.092 219.948 304.669 247.602 299.971 254.161C295.264 260.721 295.264 260.721 297.144 264.005C299.024 267.28 304.195 279.932 302.32 280.4Z" fill="#FF4500"/>
<path d="M242.784 121.017C248.663 121.017 253.429 116.268 253.429 110.41C253.429 104.552 248.663 99.8032 242.784 99.8032C236.906 99.8032 232.14 104.552 232.14 110.41C232.14 116.268 236.906 121.017 242.784 121.017Z" fill="#2F2E41"/>
<path d="M230.011 104.753C230.011 102.124 230.991 99.5881 232.762 97.6381C234.532 95.6881 236.965 94.4627 239.591 94.1996C239.241 94.165 238.886 94.1461 238.526 94.1461C235.703 94.1461 232.996 95.2636 231 97.2528C229.004 99.242 227.882 101.94 227.882 104.753C227.882 107.566 229.004 110.264 231 112.253C232.996 114.243 235.703 115.36 238.526 115.36C238.886 115.36 239.241 115.341 239.591 115.307C236.965 115.044 234.532 113.818 232.762 111.868C230.991 109.918 230.011 107.383 230.011 104.753Z" fill="#2F2E41"/>
<path d="M234.954 134.807C234.954 134.807 234.732 133.575 226.04 136.823C217.347 140.071 212.136 164.043 216.482 178.119C218.234 183.791 216.809 187.881 214.484 190.743C205.757 201.482 209.192 217.611 221.904 223.133C222.262 223.289 222.629 223.443 223.002 223.595L228.435 226.844C228.435 226.844 221.509 217.763 224.975 206.147C227.985 196.249 228.357 185.741 226.054 175.657C225.656 173.956 225.204 172.202 224.691 170.413C220.345 155.254 222.459 157.004 237.671 141.846C237.671 141.846 246.364 148.342 253.97 151.591C261.576 154.839 268.095 158.087 262.663 168.915C257.23 179.743 244.191 189.488 252.883 203.564C261.576 217.64 262.663 212.226 261.576 217.64L260.489 223.054L267.009 216.557L262.663 225.22C262.663 225.22 276.788 225.22 281.135 214.392L283.308 216.557C283.308 216.557 292 201.398 275.702 187.322C275.702 187.322 270.269 184.074 277.875 173.246C285.481 162.418 279.639 139.139 269.86 134.808C260.081 130.476 234.954 134.807 234.954 134.807Z" fill="#2F2E41"/>
<path d="M241.654 202.996L223.549 234.245H227.782V238.463L248.358 202.996H241.654Z" fill="#3F3D56"/>
<path d="M477.896 265.449H404.493V294.236H477.896V265.449Z" fill="#F2F2F2"/>
<path d="M468.662 302.258H413.728V306.978H468.662V302.258Z" fill="#F2F2F2"/>
<path d="M468.662 310.753H413.728V314.528H468.662V310.753Z" fill="#F2F2F2"/>
<path d="M53.5771 70.5506C54.6233 70.5506 55.4714 69.7054 55.4714 68.6629C55.4714 67.6204 54.6233 66.7753 53.5771 66.7753C52.5309 66.7753 51.6828 67.6204 51.6828 68.6629C51.6828 69.7054 52.5309 70.5506 53.5771 70.5506Z" fill="#FF4500"/>
<path d="M58.7864 70.5506C59.8326 70.5506 60.6807 69.7054 60.6807 68.6629C60.6807 67.6204 59.8326 66.7753 58.7864 66.7753C57.7402 66.7753 56.8921 67.6204 56.8921 68.6629C56.8921 69.7054 57.7402 70.5506 58.7864 70.5506Z" fill="#FF4500"/>
<path d="M63.9957 70.5506C65.0419 70.5506 65.89 69.7054 65.89 68.6629C65.89 67.6204 65.0419 66.7753 63.9957 66.7753C62.9495 66.7753 62.1014 67.6204 62.1014 68.6629C62.1014 69.7054 62.9495 70.5506 63.9957 70.5506Z" fill="#FF4500"/>
<path d="M485 315H46V63H485V315ZM46.9471 314.056H484.053V63.9438H46.9471V314.056Z" fill="#2F2E41"/>
<path d="M484.527 72.479H46.4736V73.4228H484.527V72.479Z" fill="#2F2E41"/>
<path d="M65.89 80.4607H51.6828V81.4045H65.89V80.4607Z" fill="#2F2E41"/>
<path d="M65.89 84.236H51.6828V85.1798H65.89V84.236Z" fill="#2F2E41"/>
<path d="M65.89 88.0112H51.6828V88.9551H65.89V88.0112Z" fill="#2F2E41"/>
<path d="M348.612 88.9551H172.443V80.4607H348.612V88.9551ZM173.391 88.0112H347.665V81.4045H173.391V88.0112Z" fill="#2F2E41"/>
<path d="M341.508 85.8876C341.133 85.8876 340.767 85.7769 340.456 85.5695C340.144 85.3621 339.901 85.0673 339.758 84.7224C339.615 84.3774 339.577 83.9979 339.65 83.6317C339.723 83.2656 339.904 82.9292 340.169 82.6652C340.434 82.4012 340.771 82.2215 341.139 82.1486C341.506 82.0758 341.887 82.1132 342.233 82.256C342.579 82.3989 342.875 82.6409 343.083 82.9513C343.291 83.2617 343.402 83.6267 343.402 84C343.402 84.5005 343.202 84.9803 342.847 85.3342C342.492 85.6881 342.01 85.8871 341.508 85.8876ZM341.508 83.0562C341.321 83.0562 341.138 83.1115 340.982 83.2152C340.826 83.319 340.705 83.4664 340.633 83.6388C340.561 83.8113 340.543 84.001 340.579 84.1841C340.616 84.3672 340.706 84.5354 340.838 84.6674C340.971 84.7994 341.14 84.8893 341.323 84.9257C341.507 84.9621 341.697 84.9434 341.871 84.872C342.044 84.8005 342.192 84.6796 342.296 84.5244C342.4 84.3691 342.455 84.1867 342.455 84C342.455 83.7498 342.355 83.5099 342.178 83.3329C342 83.156 341.759 83.0565 341.508 83.0562Z" fill="#2F2E41"/>
<path d="M342.813 84.6888L342.154 85.3662L344.02 87.1702L344.679 86.4928L342.813 84.6888Z" fill="#2F2E41"/>
<path d="M454.691 88.9551H445.22V80.4607H454.691V88.9551ZM446.167 88.0112H453.744V81.4045H446.167V88.0112Z" fill="#2F2E41"/>
<path d="M466.531 88.9551H457.059V80.4607H466.531V88.9551ZM458.006 88.0112H465.584V81.4045H458.006V88.0112Z" fill="#2F2E41"/>
<path d="M478.37 88.9551H468.899V80.4607H478.37V88.9551ZM469.846 88.0112H477.423V81.4045H469.846V88.0112Z" fill="#2F2E41"/>
<path d="M369.449 291.876H360.924V299.427H369.449V291.876Z" fill="#FF6584"/>
<path d="M381.288 291.876H372.764V299.427H381.288V291.876Z" fill="#F2F2F2"/>
<path d="M393.127 291.876H384.603V299.427H393.127V291.876Z" fill="#F2F2F2"/>
<path d="M392.654 286.685H69.6785V103.584H392.654V286.685ZM70.6257 285.742H391.707V104.528H70.6257V285.742Z" fill="#2F2E41"/>
<path d="M118.747 269.874V274.308L111.356 269.813C111.317 269.79 111.272 269.778 111.226 269.777C111.181 269.777 111.136 269.789 111.096 269.811C111.057 269.834 111.024 269.866 111.001 269.906C110.978 269.945 110.965 269.989 110.965 270.035V279.752C110.965 279.797 110.978 279.842 111.001 279.881C111.024 279.921 111.057 279.953 111.096 279.976C111.136 279.998 111.181 280.01 111.226 280.01C111.272 280.009 111.317 279.997 111.356 279.974L118.747 275.479V279.913C118.747 279.947 118.761 279.98 118.785 280.004C118.809 280.028 118.842 280.041 118.876 280.042H121.169C121.203 280.041 121.236 280.028 121.26 280.004C121.284 279.98 121.298 279.947 121.298 279.913V269.874C121.298 269.84 121.284 269.807 121.26 269.783C121.236 269.759 121.203 269.745 121.169 269.745H118.876C118.842 269.745 118.809 269.759 118.785 269.783C118.761 269.807 118.747 269.84 118.747 269.874Z" fill="#3F3D56"/>
<path d="M99.0367 280.042H96.9767C96.9425 280.042 96.9087 280.035 96.877 280.022C96.8454 280.01 96.8166 279.991 96.7923 279.967C96.7681 279.943 96.7487 279.915 96.7355 279.883C96.7222 279.852 96.7153 279.818 96.7151 279.784V270.003C96.7153 269.969 96.7222 269.935 96.7355 269.904C96.7487 269.872 96.7681 269.844 96.7923 269.82C96.8166 269.796 96.8454 269.777 96.877 269.764C96.9087 269.752 96.9425 269.745 96.9767 269.745H99.0367C99.0708 269.745 99.1047 269.752 99.1363 269.764C99.1679 269.777 99.1967 269.796 99.221 269.82C99.2453 269.844 99.2646 269.872 99.2779 269.904C99.2911 269.935 99.298 269.969 99.2982 270.003V279.784C99.298 279.818 99.2911 279.852 99.2779 279.883C99.2646 279.915 99.2453 279.943 99.221 279.967C99.1967 279.991 99.1679 280.01 99.1363 280.022C99.1047 280.035 99.0708 280.042 99.0367 280.042ZM104.72 280.042H102.66C102.625 280.042 102.592 280.035 102.56 280.022C102.528 280.01 102.499 279.991 102.475 279.967C102.451 279.943 102.432 279.915 102.418 279.883C102.405 279.852 102.398 279.818 102.398 279.784V270.003C102.398 269.969 102.405 269.935 102.418 269.904C102.432 269.872 102.451 269.844 102.475 269.82C102.499 269.796 102.528 269.777 102.56 269.764C102.592 269.752 102.625 269.745 102.66 269.745H104.72C104.754 269.745 104.788 269.752 104.819 269.764C104.851 269.777 104.88 269.796 104.904 269.82C104.928 269.844 104.947 269.872 104.961 269.904C104.974 269.935 104.981 269.969 104.981 270.003V279.784C104.981 279.818 104.974 279.852 104.961 279.883C104.947 279.915 104.928 279.943 104.904 279.967C104.88 279.991 104.851 280.01 104.819 280.022C104.788 280.035 104.754 280.042 104.72 280.042Z" fill="#3F3D56"/>
<path d="M83.4121 270.012V279.774C83.4096 279.82 83.4194 279.865 83.4404 279.905C83.4615 279.945 83.493 279.979 83.5317 280.002C83.5704 280.026 83.6148 280.039 83.6603 280.04C83.7057 280.04 83.7505 280.029 83.7899 280.006L91.5554 275.125C91.5933 275.1 91.6245 275.066 91.646 275.026C91.6676 274.985 91.6789 274.941 91.6789 274.895C91.6789 274.85 91.6676 274.805 91.646 274.765C91.6245 274.724 91.5933 274.69 91.5554 274.665L83.7899 269.784C83.7509 269.761 83.7062 269.748 83.6608 269.749C83.6153 269.749 83.5707 269.761 83.5319 269.785C83.493 269.808 83.4613 269.842 83.4402 269.882C83.4191 269.922 83.4094 269.967 83.4121 270.012Z" fill="#FF4500"/>
<path d="M377.263 263.09H85.0696V264.978H377.263V263.09Z" fill="#2F2E41"/>
<path d="M135.978 263.09H85.0696V264.978H135.978V263.09Z" fill="#FF4500"/>
<path d="M204.173 292.82H70.1521V298.011H204.173V292.82Z" fill="#F2F2F2"/>
<path d="M99.5135 304.618H70.1521V309.809H99.5135V304.618Z" fill="#F2F2F2"/>
<path d="M477.896 113.494H404.493V142.281H477.896V113.494Z" fill="#F2F2F2"/>
<path d="M468.662 150.303H413.728V155.022H468.662V150.303Z" fill="#F2F2F2"/>
<path d="M468.662 158.798H413.728V163.517H468.662V158.798Z" fill="#F2F2F2"/>
<path d="M468.662 167.292H413.728V172.011H468.662V167.292Z" fill="#F2F2F2"/>
<path d="M477.896 189.472H404.493V218.258H477.896V189.472Z" fill="#F2F2F2"/>
<path d="M468.662 226.281H413.728V231H468.662V226.281Z" fill="#F2F2F2"/>
<path d="M468.662 234.775H413.728V239.494H468.662V234.775Z" fill="#F2F2F2"/>
<path d="M468.662 243.27H413.728V247.989H468.662V243.27Z" fill="#F2F2F2"/>
<path d="M359.439 263.953L358.461 263.218C354.985 260.555 352.693 258.829 352.484 256.449C352.437 255.997 352.48 255.54 352.613 255.105C352.746 254.67 352.965 254.266 353.257 253.917C353.549 253.568 353.909 253.28 354.314 253.072C354.72 252.864 355.163 252.739 355.618 252.705C356.155 252.661 356.695 252.734 357.2 252.918C357.705 253.103 358.164 253.395 358.545 253.775C358.854 253.335 359.255 252.968 359.721 252.699C360.186 252.429 360.705 252.264 361.241 252.214C361.695 252.17 362.154 252.216 362.589 252.351C363.025 252.486 363.429 252.706 363.778 253C364.126 253.293 364.412 253.653 364.619 254.058C364.825 254.464 364.948 254.906 364.98 255.36C365.189 257.74 363.232 259.836 360.273 263.06L359.439 263.953Z" fill="#FF6584"/>
<path d="M371.007 251.822L370.472 250.724C368.588 246.778 367.332 244.204 368.231 241.989C368.394 241.565 368.641 241.177 368.958 240.85C369.274 240.522 369.653 240.261 370.073 240.082C370.492 239.903 370.943 239.81 371.4 239.808C371.856 239.806 372.308 239.895 372.729 240.071C373.227 240.274 373.675 240.584 374.041 240.977C374.407 241.37 374.683 241.838 374.849 242.349C375.324 242.097 375.849 241.951 376.387 241.922C376.924 241.892 377.462 241.98 377.962 242.178C378.387 242.344 378.774 242.592 379.101 242.91C379.428 243.227 379.687 243.606 379.864 244.025C380.041 244.444 380.132 244.895 380.131 245.349C380.131 245.804 380.038 246.254 379.86 246.672C378.962 248.887 376.264 249.869 372.158 251.403L371.007 251.822Z" fill="#FF6584"/>
<path d="M366.272 283.439L365.736 282.342C363.852 278.396 362.596 275.822 363.495 273.607C363.658 273.182 363.906 272.795 364.222 272.468C364.539 272.14 364.918 271.879 365.337 271.7C365.757 271.521 366.208 271.428 366.664 271.426C367.12 271.424 367.572 271.513 367.993 271.689C368.491 271.892 368.939 272.201 369.305 272.595C369.671 272.988 369.947 273.456 370.113 273.967C370.589 273.715 371.113 273.569 371.651 273.54C372.189 273.51 372.726 273.598 373.226 273.796C373.651 273.961 374.039 274.21 374.365 274.528C374.692 274.845 374.952 275.224 375.129 275.643C375.306 276.062 375.396 276.513 375.396 276.967C375.395 277.422 375.303 277.872 375.124 278.29C374.226 280.505 371.528 281.487 367.422 283.021L366.272 283.439Z" fill="#FF6584"/>
</svg>
