<svg width="152" height="54" viewBox="0 0 152 54" fill="none" xmlns="http://www.w3.org/2000/svg">
<circle cx="100" cy="27" r="27" fill="white"/>
<path d="M21.6794 30.8184L21.6794 30.8184L21.6836 30.8216C22.6493 31.5368 23.1464 32.5654 23.1464 33.9826C23.1464 35.254 22.6629 36.2143 21.69 36.9197C20.695 37.6229 19.2663 38.0047 17.3465 38.0047C14.7385 38.0047 12.8756 37.464 11.6703 36.468C10.4834 35.4872 9.85363 33.9965 9.85363 31.8997C9.85363 31.6236 9.62977 31.3997 9.35363 31.3997H1C0.723858 31.3997 0.5 31.6236 0.5 31.8997C0.5 34.567 1.19127 36.9327 2.58501 38.9781L2.58684 38.9807C3.99836 41.0238 6.02887 42.6218 8.6513 43.7853L8.65404 43.7865C11.2773 44.9315 14.1773 45.5 17.3465 45.5C21.8929 45.5 25.5704 44.5076 28.3285 42.4696L28.3303 42.4683C31.1093 40.3957 32.5 37.5303 32.5 33.9278C32.5 30.691 31.366 27.9648 29.0996 25.7841C26.8516 23.6211 23.3132 21.8473 18.544 20.4306C15.9927 19.6694 14.0945 18.8642 12.8215 18.0265C11.6132 17.2193 11.0748 16.2739 11.0748 15.1818C11.0748 13.9537 11.5624 12.9869 12.5663 12.2393L12.5663 12.2393L12.5704 12.2361C13.5814 11.467 15.0415 11.0501 17.0134 11.0501C19.0452 11.0501 20.5498 11.5425 21.5958 12.4607L21.5958 12.4607L21.5992 12.4636C22.6338 13.3555 23.1741 14.6213 23.1741 16.3329C23.1741 16.609 23.398 16.8329 23.6741 16.8329H32C32.2761 16.8329 32.5 16.609 32.5 16.3329C32.5 13.8471 31.8452 11.612 30.5295 9.64343C29.2331 7.67595 27.4085 6.16527 25.0753 5.10741C22.7431 4.03166 20.0986 3.5 17.1522 3.5C14.2287 3.5 11.5726 3.98442 9.19138 4.96264L9.19007 4.96318C6.82644 5.94201 4.97953 7.31847 3.67664 9.10438L3.67605 9.10519C2.39041 10.8749 1.74888 12.8971 1.74888 15.1544C1.74888 19.536 4.19371 22.9801 8.89622 25.4893L8.89686 25.4896C10.6171 26.4043 12.933 27.3283 15.833 28.2646L15.8357 28.2655C18.7162 29.1772 20.6428 30.0336 21.6794 30.8184Z" fill="#FF4500" stroke="#FF4500" stroke-linejoin="round"/>
<path d="M67 15.5082C67.2761 15.5082 67.5 15.2844 67.5 15.0082V9C67.5 8.72386 67.2761 8.5 67 8.5H38C37.7239 8.5 37.5 8.72386 37.5 9V15.0082C37.5 15.2844 37.7239 15.5082 38 15.5082H48.2589V45C48.2589 45.2761 48.4827 45.5 48.7589 45.5H56.0944C56.3706 45.5 56.5944 45.2761 56.5944 45V15.5082H67Z" fill="#FF4500" stroke="#FF4500" stroke-linejoin="round"/>
<path d="M81 45.5C81.2761 45.5 81.5 45.2761 81.5 45V9C81.5 8.72386 81.2761 8.5 81 8.5H74C73.7239 8.5 73.5 8.72386 73.5 9V45C73.5 45.2761 73.7239 45.5 74 45.5H81Z" fill="#FF4500" stroke="#FF4500" stroke-linejoin="round"/>
<path d="M148.439 29.8984C148.715 29.8984 148.939 29.6745 148.939 29.3984V23.5879C148.939 23.3118 148.715 23.0879 148.439 23.0879H134.184V15.5082H150.949C151.225 15.5082 151.449 15.2844 151.449 15.0082V9C151.449 8.72386 151.225 8.5 150.949 8.5H126C125.724 8.5 125.5 8.72386 125.5 9V45C125.5 45.2761 125.724 45.5 126 45.5H151C151.276 45.5 151.5 45.2761 151.5 45V39.0412C151.5 38.7651 151.276 38.5412 151 38.5412H134.184V29.8984H148.439Z" fill="#FF4500" stroke="#FF4500" stroke-linejoin="round"/>
<path d="M116.865 13L117.269 13.1766C117.329 13.0401 117.316 12.8828 117.234 12.7582C117.153 12.6336 117.014 12.5585 116.865 12.5585H110.378C110.202 12.5585 110.042 12.6632 109.973 12.8249L101.678 32.0258L93.499 12.827C93.4297 12.6642 93.2698 12.5585 93.0929 12.5585H86.0419C85.8945 12.5585 85.7569 12.632 85.675 12.7544C85.593 12.8769 85.5775 13.0321 85.6337 13.1684L86.0419 13C85.6337 13.1684 85.6338 13.1684 85.6338 13.1686L85.6341 13.1693L85.6353 13.1721L85.6398 13.1831L85.6577 13.2265L85.7281 13.3969C85.79 13.5465 85.8812 13.767 85.9986 14.0504C86.2334 14.6172 86.5732 15.4359 86.993 16.4435C87.8326 18.4586 88.9922 21.2295 90.2725 24.2523C92.8316 30.2946 95.8774 37.3549 97.8117 41.3946C97.8291 41.431 97.8513 41.4648 97.8779 41.495C99.0568 42.8395 100.192 43.6322 101.401 43.6322C102.615 43.6322 103.722 42.8344 104.845 41.4866C104.871 41.4553 104.893 41.4204 104.91 41.3831C106.38 38.0705 109.471 31.0183 112.193 24.7955C113.554 21.6838 114.823 18.7791 115.752 16.6523L116.859 14.1169L117.163 13.4206L117.242 13.2387L117.263 13.1923L117.268 13.1805L117.269 13.1776L117.269 13.1768C117.269 13.1767 117.269 13.1766 116.865 13Z" fill="#FF4500" stroke="#FF4500" stroke-width="0.883009" stroke-linejoin="round"/>
</svg>
