<svg width="330" height="223" viewBox="0 0 330 223" fill="none" xmlns="http://www.w3.org/2000/svg">
<path d="M161.015 216.107C130.75 204.25 105.805 180.538 86.1804 144.969C66.5555 109.4 75.304 83.9091 112.426 68.4959C149.548 53.0827 182.177 42.7677 210.314 37.5509C238.451 32.3342 268.48 40.2779 300.4 61.3821C332.32 82.4863 335.512 107.147 309.976 135.365C284.44 163.583 260.795 187.059 239.042 205.792C217.289 224.525 191.28 227.963 161.015 216.107Z" fill="#FFC7B3"/>
<path d="M278.432 199.144C279.956 199.68 281.592 199.814 283.182 199.534C284.773 199.254 286.264 198.569 287.513 197.545C290.693 194.876 291.692 190.479 292.502 186.408L294.902 174.365L289.878 177.824C286.264 180.312 282.57 182.879 280.068 186.482C277.566 190.085 276.474 195.003 278.484 198.901" fill="#E6E6E6"/>
<path d="M278.862 213.724C278.354 210.021 277.831 206.27 278.187 202.527C278.504 199.203 279.518 195.956 281.584 193.293C282.68 191.883 284.014 190.675 285.525 189.722C285.92 189.474 286.282 190.098 285.89 190.346C283.275 191.998 281.252 194.439 280.113 197.315C278.855 200.513 278.653 204 278.872 207.397C279.003 209.452 279.28 211.492 279.56 213.532C279.583 213.624 279.569 213.721 279.523 213.804C279.476 213.887 279.399 213.948 279.308 213.976C279.216 214.001 279.117 213.988 279.034 213.941C278.951 213.894 278.89 213.816 278.864 213.724L278.862 213.724Z" fill="#F2F2F2"/>
<path d="M319.447 213.576C319.447 213.576 314.171 200.591 330 190.852L319.447 213.576Z" fill="#E6E6E6"/>
<path d="M312.958 213.34C312.958 213.34 311.349 204.085 298.891 204.164L312.958 213.34Z" fill="#E6E6E6"/>
<path d="M21.3877 99.7034H137.385V17.8979H21.3877V99.7034Z" fill="white"/>
<path d="M139.868 102.185H18.9053V15.416H139.868V102.185ZM21.3878 99.7034H137.385V17.8979H21.3878V99.7034Z" fill="#E6E6E6"/>
<path d="M11.1208 92.1854H10.2656V9.04625H126.266V9.9079H11.1208V92.1854Z" fill="#CBCBCB"/>
<path d="M0.85563 83.1392H0V0H116.001V0.861646H0.85563V83.1392Z" fill="#CBCBCB"/>
<path d="M79.3867 83.7855C93.0878 83.7855 104.195 72.5994 104.195 58.8006C104.195 45.0018 93.0878 33.8157 79.3867 33.8157C65.6856 33.8157 54.5786 45.0018 54.5786 58.8006C54.5786 72.5994 65.6856 83.7855 79.3867 83.7855Z" fill="white"/>
<path d="M79.3869 84.1991C65.4795 84.1991 54.165 72.8054 54.165 58.8006C54.165 44.7959 65.4795 33.4022 79.3869 33.4022C93.2942 33.4022 104.609 44.7959 104.609 58.8006C104.609 72.8054 93.2942 84.1991 79.3869 84.1991ZM79.3869 34.2295C65.9358 34.2295 54.9925 45.252 54.9925 58.8006C54.9925 72.3493 65.9358 83.3718 79.3869 83.3718C92.8379 83.3718 103.781 72.3493 103.781 58.8006C103.781 45.252 92.8379 34.2295 79.3869 34.2295Z" fill="#CBCBCB"/>
<path d="M72.5303 46.4048V71.6271L93.1142 58.8435L72.5303 46.4048Z" fill="#FF4500"/>
<path d="M213.187 208.737H208.558L206.356 190.887H213.188L213.187 208.737Z" fill="#FFB7B7"/>
<path d="M214.368 213.223L199.442 213.222V213.034C199.442 211.493 200.055 210.016 201.144 208.927C202.233 207.838 203.711 207.226 205.252 207.226H205.252L214.368 207.226L214.368 213.223Z" fill="#2F2E41"/>
<path d="M252.956 201.972L249.075 204.494L237.497 190.729L243.225 187.006L252.956 201.972Z" fill="#FFB7B7"/>
<path d="M256.392 205.09L243.878 213.223L243.775 213.065C242.935 211.773 242.643 210.201 242.963 208.694C243.282 207.188 244.187 205.869 245.479 205.03L245.479 205.029L253.122 200.062L256.392 205.09Z" fill="#2F2E41"/>
<path d="M225.015 40.2498C227.371 40.2498 229.28 38.3407 229.28 35.9857C229.28 33.6307 227.371 31.7216 225.015 31.7216C222.66 31.7216 220.75 33.6307 220.75 35.9857C220.75 38.3407 222.66 40.2498 225.015 40.2498Z" fill="#2F2E41"/>
<path d="M220.989 37.5366C220.544 36.9476 220.26 36.2533 220.164 35.5217C220.068 34.79 220.164 34.0459 220.442 33.3622C220.719 32.6784 221.17 32.0785 221.749 31.621C222.328 31.1634 223.016 30.8639 223.746 30.7518C223.154 30.7355 222.565 30.8427 222.016 31.0666C221.468 31.2904 220.972 31.626 220.561 32.052C220.15 32.4779 219.831 32.9849 219.627 33.5406C219.422 34.0963 219.336 34.6885 219.373 35.2794C219.41 35.8704 219.569 36.4472 219.842 36.973C220.114 37.4989 220.493 37.9623 220.954 38.3337C221.415 38.705 221.949 38.9763 222.521 39.1301C223.093 39.2839 223.69 39.3169 224.276 39.227C223.636 39.2105 223.008 39.0499 222.439 38.7572C221.87 38.4645 221.375 38.0473 220.989 37.5366Z" fill="#2F2E41"/>
<path d="M220.596 63.5999C227.516 63.5999 233.125 57.9919 233.125 51.0741C233.125 44.1563 227.516 38.5483 220.596 38.5483C213.677 38.5483 208.068 44.1563 208.068 51.0741C208.068 57.9919 213.677 63.5999 220.596 63.5999Z" fill="#2F2E41"/>
<path d="M208.922 46.5113C210.278 43.5596 212.728 41.25 215.755 40.07C218.782 38.89 222.149 38.9319 225.145 40.1869C225.019 40.1236 224.893 40.0594 224.764 39.9999C221.744 38.6138 218.297 38.4838 215.182 39.6384C212.066 40.7931 209.537 43.1379 208.151 46.1569C206.764 49.176 206.634 52.622 207.789 55.737C208.944 58.8519 211.289 61.3806 214.309 62.7667C214.438 62.8261 214.569 62.8794 214.699 62.9341C211.794 61.48 209.568 58.9544 208.49 55.8903C207.412 52.8262 207.567 49.4632 208.922 46.5113Z" fill="#2F2E41"/>
<path d="M235.798 116.803L244.777 163.371L256.561 198.156L237.481 202.084L218.963 132.513L218.401 199.279L194.271 199.84L199.883 160.004L206.696 115.032L235.798 116.803Z" fill="#2F2E41"/>
<path d="M220.636 63.5134C225.285 63.5134 229.054 59.7455 229.054 55.0976C229.054 50.4496 225.285 46.6817 220.636 46.6817C215.987 46.6817 212.218 50.4496 212.218 55.0976C212.218 59.7455 215.987 63.5134 220.636 63.5134Z" fill="#FFB8B8"/>
<path d="M228.503 67.6682L215.596 67.9915L206.617 72.4799L207.739 98.2885L205.563 118.052C205.563 118.052 204.75 121.149 210.361 123.955C212.157 124.852 214.47 125.233 216.786 125.336C221.527 125.489 226.179 124.019 229.97 121.167C231.147 120.305 232.451 119.729 233.553 120.17C236.359 121.292 236.92 117.925 236.92 117.925L233.553 101.655L238.604 86.183L233.503 69.5741L228.503 67.6682Z" fill="#FF4500"/>
<path d="M212.865 46.2981V55.6682H215.036L217.798 52.7094L217.428 55.6682H227.022L226.431 52.7094L227.615 55.6682H229.144V46.2981H212.865Z" fill="#2F2E41"/>
<path d="M230.829 52.7638C230.805 52.5101 230.687 52.2745 230.498 52.1029C230.31 51.9312 230.064 51.8359 229.809 51.8354H228.779V58.6237H229.809C230.064 58.6232 230.31 58.5279 230.498 58.3563C230.687 58.1846 230.805 57.949 230.829 57.6953C231.342 57.557 231.796 57.2535 232.119 56.8317C232.443 56.4099 232.618 55.8933 232.619 55.3617V55.0974C232.618 54.5659 232.443 54.0492 232.119 53.6274C231.796 53.2056 231.342 52.9021 230.829 52.7638Z" fill="#FF4500"/>
<path d="M212.212 57.781H211.073C210.755 57.781 210.441 57.7185 210.147 57.5969C209.854 57.4753 209.587 57.2971 209.362 57.0724C209.137 56.8478 208.959 56.5811 208.838 56.2876C208.716 55.994 208.653 55.6794 208.653 55.3617V55.0974C208.653 54.7797 208.716 54.4651 208.838 54.1716C208.959 53.878 209.137 53.6113 209.362 53.3867C209.587 53.162 209.854 52.9838 210.147 52.8622C210.441 52.7407 210.755 52.6781 211.073 52.6781H212.212V57.7811V57.781Z" fill="#FF4500"/>
<path d="M212.493 58.6238H211.463C211.19 58.6238 210.928 58.5152 210.735 58.3221C210.542 58.1289 210.433 57.8669 210.433 57.5938V52.8653C210.433 52.5922 210.542 52.3302 210.735 52.137C210.928 51.9439 211.19 51.8354 211.463 51.8354H212.493V58.6238Z" fill="#FF4500"/>
<path d="M230.277 53.0333H229.522C229.522 47.7014 225.571 43.3636 220.714 43.3636C215.856 43.3636 211.905 47.7013 211.905 53.0333H211.149C211.149 47.2852 215.44 42.6087 220.714 42.6087C225.987 42.6087 230.277 47.2852 230.277 53.0333Z" fill="#FF4500"/>
<path d="M199.515 131.694C199.969 131.446 200.363 131.101 200.67 130.684C200.977 130.268 201.189 129.789 201.29 129.281C201.392 128.774 201.381 128.25 201.258 127.748C201.135 127.245 200.904 126.775 200.58 126.372L204.468 119.278L200.733 115.865L195.383 125.959C194.741 126.548 194.337 127.352 194.248 128.218C194.159 129.085 194.392 129.954 194.901 130.661C195.41 131.368 196.161 131.864 197.012 132.054C197.862 132.244 198.753 132.116 199.515 131.694V131.694Z" fill="#FFB7B7"/>
<path d="M209.423 72.48L207.912 71.74C207.912 71.74 204.372 72.48 203.25 74.7242C202.127 76.9684 199.322 99.9716 199.322 99.9716L197.077 115.12C197.077 115.12 195.393 115.12 195.393 116.803C195.393 118.486 193.149 122.975 194.832 122.975C196.516 122.975 203.25 122.975 204.372 121.853C205.495 120.731 207.739 116.242 207.178 115.681C206.617 115.12 205.495 115.12 205.495 115.12L207.073 99.933L209.423 72.48Z" fill="#FF4500"/>
<path d="M239.583 126.421C239.206 126.066 238.912 125.633 238.72 125.152C238.529 124.671 238.446 124.154 238.476 123.638C238.506 123.121 238.649 122.617 238.895 122.162C239.141 121.707 239.484 121.311 239.899 121.002L237.933 113.156L242.411 110.799L245.032 121.918C245.504 122.65 245.691 123.53 245.558 124.391C245.424 125.252 244.98 126.034 244.308 126.589C243.636 127.144 242.784 127.434 241.913 127.403C241.042 127.372 240.213 127.022 239.583 126.421Z" fill="#FFB7B7"/>
<path d="M233.951 94.9691L235.53 110.156C235.53 110.156 234.407 110.156 233.846 110.717C233.285 111.278 235.53 115.767 236.652 116.889C237.775 118.011 244.509 118.011 246.192 118.011C247.876 118.011 245.631 113.523 245.631 111.839C245.631 110.156 243.947 110.156 243.947 110.156L241.703 95.0077C241.703 95.0077 238.897 74.4864 237.774 72.2422C236.652 69.998 233.112 69.258 233.112 69.258L231.602 69.998L233.951 94.9691Z" fill="#FF4500"/>
<path d="M203.174 126.587L203.102 126.633L201.843 124.649C201.747 124.498 201.622 124.368 201.476 124.265C201.33 124.162 201.165 124.089 200.991 124.05C200.817 124.011 200.636 124.007 200.46 124.038C200.284 124.068 200.116 124.133 199.965 124.229L195.761 126.896C195.457 127.089 195.241 127.395 195.163 127.747C195.084 128.099 195.148 128.468 195.342 128.773L202.248 139.656C202.344 139.807 202.468 139.938 202.614 140.04C202.761 140.143 202.926 140.216 203.1 140.255C203.274 140.294 203.454 140.298 203.63 140.268C203.806 140.237 203.975 140.172 204.125 140.076L208.329 137.409C208.634 137.216 208.849 136.91 208.928 136.558C209.007 136.206 208.943 135.837 208.749 135.533L203.998 128.045L204.07 127.999L203.174 126.587Z" fill="#CBCBCB"/>
<path d="M201.603 124.812L208.5 135.68C208.644 135.907 208.692 136.183 208.633 136.445C208.574 136.708 208.414 136.937 208.186 137.081L203.962 139.761C203.734 139.905 203.459 139.953 203.196 139.894C202.933 139.836 202.704 139.675 202.56 139.447L195.663 128.579C195.519 128.352 195.471 128.077 195.53 127.814C195.589 127.551 195.749 127.322 195.977 127.178L196.489 126.853C196.504 126.931 196.537 127.004 196.586 127.066C196.635 127.128 196.698 127.177 196.77 127.209C196.843 127.241 196.922 127.254 197.001 127.248C197.08 127.242 197.156 127.217 197.223 127.175L199.631 125.647C199.698 125.605 199.753 125.546 199.792 125.478C199.832 125.409 199.853 125.331 199.855 125.252C199.857 125.173 199.84 125.095 199.804 125.024C199.769 124.953 199.717 124.892 199.653 124.846L200.201 124.498C200.429 124.354 200.704 124.306 200.967 124.365C201.23 124.424 201.459 124.585 201.603 124.812Z" fill="#FF4500"/>
<path d="M326.562 214H168.924C168.814 214 168.709 213.956 168.631 213.879C168.554 213.801 168.51 213.696 168.51 213.586C168.51 213.477 168.554 213.371 168.631 213.294C168.709 213.216 168.814 213.173 168.924 213.173H326.562C326.672 213.173 326.777 213.216 326.854 213.294C326.932 213.371 326.976 213.477 326.976 213.586C326.976 213.696 326.932 213.801 326.854 213.879C326.777 213.956 326.672 214 326.562 214Z" fill="#CBCBCB"/>
</svg>
